<svg viewBox="0 0 8 8" xmlns="http://www.w3.org/2000/svg" xmlns:xlink="http://www.w3.org/1999/xlink">
                        <rect x="0" y="0" width="1" height="1" fill="rgb(124,206,28)" />;
                    <rect x="7" y="0" width="1" height="1" fill="rgb(124,206,28)" />;
                    <rect x="1" y="0" width="1" height="1" fill="rgb(124,206,28)" />;
                    <rect x="6" y="0" width="1" height="1" fill="rgb(124,206,28)" />;
                    <rect x="2" y="0" width="1" height="1" fill="rgb(51,188,236)" />;
                    <rect x="5" y="0" width="1" height="1" fill="rgb(51,188,236)" />;
                    <rect x="3" y="0" width="1" height="1" fill="rgb(124,206,28)" />;
                    <rect x="4" y="0" width="1" height="1" fill="rgb(124,206,28)" />;
                                <rect x="0" y="1" width="1" height="1" fill="rgb(124,206,28)" />;
                    <rect x="7" y="1" width="1" height="1" fill="rgb(124,206,28)" />;
                    <rect x="1" y="1" width="1" height="1" fill="rgb(51,188,236)" />;
                    <rect x="6" y="1" width="1" height="1" fill="rgb(51,188,236)" />;
                    <rect x="2" y="1" width="1" height="1" fill="rgb(124,206,28)" />;
                    <rect x="5" y="1" width="1" height="1" fill="rgb(124,206,28)" />;
                    <rect x="3" y="1" width="1" height="1" fill="rgb(124,206,28)" />;
                    <rect x="4" y="1" width="1" height="1" fill="rgb(124,206,28)" />;
                                <rect x="0" y="2" width="1" height="1" fill="rgb(239,2,76)" />;
                    <rect x="7" y="2" width="1" height="1" fill="rgb(239,2,76)" />;
                    <rect x="1" y="2" width="1" height="1" fill="rgb(124,206,28)" />;
                    <rect x="6" y="2" width="1" height="1" fill="rgb(124,206,28)" />;
                    <rect x="2" y="2" width="1" height="1" fill="rgb(51,188,236)" />;
                    <rect x="5" y="2" width="1" height="1" fill="rgb(51,188,236)" />;
                    <rect x="3" y="2" width="1" height="1" fill="rgb(51,188,236)" />;
                    <rect x="4" y="2" width="1" height="1" fill="rgb(51,188,236)" />;
                                <rect x="0" y="3" width="1" height="1" fill="rgb(51,188,236)" />;
                    <rect x="7" y="3" width="1" height="1" fill="rgb(51,188,236)" />;
                    <rect x="1" y="3" width="1" height="1" fill="rgb(239,2,76)" />;
                    <rect x="6" y="3" width="1" height="1" fill="rgb(239,2,76)" />;
                    <rect x="2" y="3" width="1" height="1" fill="rgb(124,206,28)" />;
                    <rect x="5" y="3" width="1" height="1" fill="rgb(124,206,28)" />;
                    <rect x="3" y="3" width="1" height="1" fill="rgb(124,206,28)" />;
                    <rect x="4" y="3" width="1" height="1" fill="rgb(124,206,28)" />;
                                <rect x="0" y="4" width="1" height="1" fill="rgb(124,206,28)" />;
                    <rect x="7" y="4" width="1" height="1" fill="rgb(124,206,28)" />;
                    <rect x="1" y="4" width="1" height="1" fill="rgb(51,188,236)" />;
                    <rect x="6" y="4" width="1" height="1" fill="rgb(51,188,236)" />;
                    <rect x="2" y="4" width="1" height="1" fill="rgb(253,10,147)" />;
                    <rect x="5" y="4" width="1" height="1" fill="rgb(253,10,147)" />;
                    <rect x="3" y="4" width="1" height="1" fill="rgb(239,2,76)" />;
                    <rect x="4" y="4" width="1" height="1" fill="rgb(239,2,76)" />;
                                <rect x="0" y="5" width="1" height="1" fill="rgb(239,2,76)" />;
                    <rect x="7" y="5" width="1" height="1" fill="rgb(239,2,76)" />;
                    <rect x="1" y="5" width="1" height="1" fill="rgb(253,10,147)" />;
                    <rect x="6" y="5" width="1" height="1" fill="rgb(253,10,147)" />;
                    <rect x="2" y="5" width="1" height="1" fill="rgb(253,10,147)" />;
                    <rect x="5" y="5" width="1" height="1" fill="rgb(253,10,147)" />;
                    <rect x="3" y="5" width="1" height="1" fill="rgb(51,188,236)" />;
                    <rect x="4" y="5" width="1" height="1" fill="rgb(51,188,236)" />;
                                <rect x="0" y="6" width="1" height="1" fill="rgb(253,10,147)" />;
                    <rect x="7" y="6" width="1" height="1" fill="rgb(253,10,147)" />;
                    <rect x="1" y="6" width="1" height="1" fill="rgb(51,188,236)" />;
                    <rect x="6" y="6" width="1" height="1" fill="rgb(51,188,236)" />;
                    <rect x="2" y="6" width="1" height="1" fill="rgb(124,206,28)" />;
                    <rect x="5" y="6" width="1" height="1" fill="rgb(124,206,28)" />;
                    <rect x="3" y="6" width="1" height="1" fill="rgb(253,10,147)" />;
                    <rect x="4" y="6" width="1" height="1" fill="rgb(253,10,147)" />;
                                <rect x="0" y="7" width="1" height="1" fill="rgb(253,10,147)" />;
                    <rect x="7" y="7" width="1" height="1" fill="rgb(253,10,147)" />;
                    <rect x="1" y="7" width="1" height="1" fill="rgb(124,206,28)" />;
                    <rect x="6" y="7" width="1" height="1" fill="rgb(124,206,28)" />;
                    <rect x="2" y="7" width="1" height="1" fill="rgb(253,10,147)" />;
                    <rect x="5" y="7" width="1" height="1" fill="rgb(253,10,147)" />;
                    <rect x="3" y="7" width="1" height="1" fill="rgb(253,10,147)" />;
                    <rect x="4" y="7" width="1" height="1" fill="rgb(253,10,147)" />;
            </svg> 